<mxfile host="Electron" agent="Mozilla/5.0 (Windows NT 10.0; Win64; x64) AppleWebKit/537.36 (KHTML, like Gecko) draw.io/26.0.16 Chrome/132.0.6834.196 Electron/34.2.0 Safari/537.36" version="26.0.16">
  <diagram name="Page-1" id="M-lTWyibjt6i0ZTYDzBq">
    <mxGraphModel dx="1098" dy="820" grid="1" gridSize="10" guides="1" tooltips="1" connect="1" arrows="1" fold="1" page="1" pageScale="1" pageWidth="827" pageHeight="1169" math="0" shadow="0">
      <root>
        <mxCell id="0" />
        <mxCell id="1" parent="0" />
        <mxCell id="HyWu2Pgf14OXVm07-XL6-7" value="" style="edgeStyle=orthogonalEdgeStyle;rounded=0;orthogonalLoop=1;jettySize=auto;html=1;" edge="1" parent="1" source="HyWu2Pgf14OXVm07-XL6-1" target="HyWu2Pgf14OXVm07-XL6-6">
          <mxGeometry relative="1" as="geometry" />
        </mxCell>
        <mxCell id="HyWu2Pgf14OXVm07-XL6-1" value="Tokka Fitness&lt;div&gt;(System)&lt;/div&gt;" style="ellipse;whiteSpace=wrap;html=1;aspect=fixed;" vertex="1" parent="1">
          <mxGeometry x="360" y="380" width="80" height="80" as="geometry" />
        </mxCell>
        <mxCell id="HyWu2Pgf14OXVm07-XL6-16" style="edgeStyle=orthogonalEdgeStyle;rounded=0;orthogonalLoop=1;jettySize=auto;html=1;entryX=1;entryY=0.375;entryDx=0;entryDy=0;entryPerimeter=0;" edge="1" parent="1" source="HyWu2Pgf14OXVm07-XL6-2" target="HyWu2Pgf14OXVm07-XL6-1">
          <mxGeometry relative="1" as="geometry">
            <mxPoint x="520" y="420" as="targetPoint" />
          </mxGeometry>
        </mxCell>
        <mxCell id="HyWu2Pgf14OXVm07-XL6-2" value="Admin" style="whiteSpace=wrap;html=1;aspect=fixed;" vertex="1" parent="1">
          <mxGeometry x="720" y="370" width="80" height="80" as="geometry" />
        </mxCell>
        <mxCell id="HyWu2Pgf14OXVm07-XL6-3" value="Trainer" style="whiteSpace=wrap;html=1;aspect=fixed;" vertex="1" parent="1">
          <mxGeometry x="220" y="720" width="80" height="80" as="geometry" />
        </mxCell>
        <mxCell id="HyWu2Pgf14OXVm07-XL6-4" value="Payment Gateway" style="whiteSpace=wrap;html=1;aspect=fixed;" vertex="1" parent="1">
          <mxGeometry x="560" y="620" width="80" height="80" as="geometry" />
        </mxCell>
        <mxCell id="HyWu2Pgf14OXVm07-XL6-6" value="Customer" style="whiteSpace=wrap;html=1;aspect=fixed;" vertex="1" parent="1">
          <mxGeometry x="10" y="370" width="80" height="80" as="geometry" />
        </mxCell>
        <mxCell id="HyWu2Pgf14OXVm07-XL6-10" value="" style="edgeStyle=orthogonalEdgeStyle;rounded=0;orthogonalLoop=1;jettySize=auto;html=1;exitX=1;exitY=0.25;exitDx=0;exitDy=0;entryX=0;entryY=0;entryDx=0;entryDy=0;" edge="1" parent="1" source="HyWu2Pgf14OXVm07-XL6-6" target="HyWu2Pgf14OXVm07-XL6-1">
          <mxGeometry relative="1" as="geometry">
            <mxPoint x="225" y="380" as="sourcePoint" />
            <mxPoint x="336.71572875253787" y="391.71572875253787" as="targetPoint" />
          </mxGeometry>
        </mxCell>
        <mxCell id="HyWu2Pgf14OXVm07-XL6-17" value="&lt;ul style=&quot;margin-top: 4px; margin-bottom: 0px; padding-left: calc(var(--ds-md-zoom)*24px); color: rgb(64, 64, 64); font-family: Inter, system-ui, -apple-system, BlinkMacSystemFont, &amp;quot;Segoe UI&amp;quot;, Roboto, &amp;quot;Noto Sans&amp;quot;, Ubuntu, Cantarell, &amp;quot;Helvetica Neue&amp;quot;, Oxygen, &amp;quot;Open Sans&amp;quot;, sans-serif; font-style: normal; font-variant-ligatures: normal; font-variant-caps: normal; font-weight: 400; letter-spacing: normal; orphans: 2; text-align: left; text-indent: 0px; text-transform: none; widows: 2; word-spacing: 0px; -webkit-text-stroke-width: 0px; white-space: normal; text-decoration-thickness: initial; text-decoration-style: initial; text-decoration-color: initial;&quot;&gt;&lt;li&gt;&lt;p style=&quot;margin-top: 0px; margin-right: 0px; margin-left: 0px; line-height: var(--ds-md-line-height); margin-bottom: 0px !important;&quot;&gt;&lt;font&gt;User account management requests (e.g., account creation, updates, deletion).&lt;/font&gt;&lt;/p&gt;&lt;/li&gt;&lt;li style=&quot;margin-top: 4px;&quot;&gt;&lt;p style=&quot;margin-top: 0px; margin-right: 0px; margin-left: 0px; line-height: var(--ds-md-line-height); margin-bottom: 0px !important;&quot;&gt;&lt;font&gt;Content management requests (e.g., adding, updating, or removing fitness content).&lt;/font&gt;&lt;/p&gt;&lt;/li&gt;&lt;/ul&gt;" style="text;whiteSpace=wrap;html=1;fontSize=10;" vertex="1" parent="1">
          <mxGeometry x="540" y="320" width="180" height="90" as="geometry" />
        </mxCell>
        <mxCell id="HyWu2Pgf14OXVm07-XL6-18" value="&lt;ul style=&quot;margin-top: 4px; margin-bottom: 0px; padding-left: calc(var(--ds-md-zoom)*24px); color: rgb(64, 64, 64); font-family: Inter, system-ui, -apple-system, BlinkMacSystemFont, &amp;quot;Segoe UI&amp;quot;, Roboto, &amp;quot;Noto Sans&amp;quot;, Ubuntu, Cantarell, &amp;quot;Helvetica Neue&amp;quot;, Oxygen, &amp;quot;Open Sans&amp;quot;, sans-serif; font-style: normal; font-variant-ligatures: normal; font-variant-caps: normal; font-weight: 400; letter-spacing: normal; orphans: 2; text-align: left; text-indent: 0px; text-transform: none; widows: 2; word-spacing: 0px; -webkit-text-stroke-width: 0px; white-space: normal; text-decoration-thickness: initial; text-decoration-style: initial; text-decoration-color: initial;&quot;&gt;&lt;li style=&quot;&quot;&gt;&lt;p style=&quot;margin-top: 0px; margin-right: 0px; margin-left: 0px; line-height: var(--ds-md-line-height); margin-bottom: 0px !important;&quot;&gt;&lt;font style=&quot;font-size: 10px;&quot;&gt;Registration data (e.g., name, email, password, date of birth, gender, fitness level).&lt;/font&gt;&lt;/p&gt;&lt;/li&gt;&lt;li style=&quot;margin-top: 4px;&quot;&gt;&lt;p style=&quot;margin-top: 0px; margin-right: 0px; margin-left: 0px; line-height: var(--ds-md-line-height); margin-bottom: 0px !important;&quot;&gt;&lt;font style=&quot;font-size: 10px;&quot;&gt;Login credentials (e.g., email, password).&lt;/font&gt;&lt;/p&gt;&lt;/li&gt;&lt;li style=&quot;margin-top: 4px;&quot;&gt;&lt;p style=&quot;margin-top: 0px; margin-right: 0px; margin-left: 0px; line-height: var(--ds-md-line-height); margin-bottom: 0px !important;&quot;&gt;&lt;font style=&quot;font-size: 10px;&quot;&gt;Preferences for workout plans, diet plans, and health advice.&lt;/font&gt;&lt;/p&gt;&lt;/li&gt;&lt;li style=&quot;margin-top: 4px;&quot;&gt;&lt;p style=&quot;margin-top: 0px; margin-right: 0px; margin-left: 0px; line-height: var(--ds-md-line-height); margin-bottom: 0px !important;&quot;&gt;&lt;font style=&quot;font-size: 10px;&quot;&gt;Feedback and queries.&lt;/font&gt;&lt;/p&gt;&lt;/li&gt;&lt;/ul&gt;" style="text;whiteSpace=wrap;html=1;" vertex="1" parent="1">
          <mxGeometry x="100" y="250" width="196" height="140" as="geometry" />
        </mxCell>
        <mxCell id="HyWu2Pgf14OXVm07-XL6-19" value="&lt;ul style=&quot;margin-top: 4px; margin-bottom: 0px; padding-left: calc(var(--ds-md-zoom)*24px); color: rgb(64, 64, 64); font-family: Inter, system-ui, -apple-system, BlinkMacSystemFont, &amp;quot;Segoe UI&amp;quot;, Roboto, &amp;quot;Noto Sans&amp;quot;, Ubuntu, Cantarell, &amp;quot;Helvetica Neue&amp;quot;, Oxygen, &amp;quot;Open Sans&amp;quot;, sans-serif; font-style: normal; font-variant-ligatures: normal; font-variant-caps: normal; font-weight: 400; letter-spacing: normal; orphans: 2; text-align: left; text-indent: 0px; text-transform: none; widows: 2; word-spacing: 0px; -webkit-text-stroke-width: 0px; white-space: normal; text-decoration-thickness: initial; text-decoration-style: initial; text-decoration-color: initial;&quot;&gt;&lt;li&gt;&lt;p style=&quot;margin-top: 0px; margin-right: 0px; margin-left: 0px; line-height: var(--ds-md-line-height); margin-bottom: 0px !important;&quot;&gt;Personalized workout plans, diet plans, and health advice.&lt;/p&gt;&lt;/li&gt;&lt;li style=&quot;margin-top: 4px;&quot;&gt;&lt;p style=&quot;margin-top: 0px; margin-right: 0px; margin-left: 0px; line-height: var(--ds-md-line-height); margin-bottom: 0px !important;&quot;&gt;Subscription confirmation and payment receipts.&lt;/p&gt;&lt;/li&gt;&lt;li style=&quot;margin-top: 4px;&quot;&gt;&lt;p style=&quot;margin-top: 0px; margin-right: 0px; margin-left: 0px; line-height: var(--ds-md-line-height); margin-bottom: 0px !important;&quot;&gt;Progress tracking and analytics.&lt;/p&gt;&lt;/li&gt;&lt;/ul&gt;" style="text;whiteSpace=wrap;html=1;fontSize=10;" vertex="1" parent="1">
          <mxGeometry x="110" y="420" width="130" height="90" as="geometry" />
        </mxCell>
        <mxCell id="HyWu2Pgf14OXVm07-XL6-20" style="edgeStyle=orthogonalEdgeStyle;rounded=0;orthogonalLoop=1;jettySize=auto;html=1;entryX=0.05;entryY=0.875;entryDx=0;entryDy=0;entryPerimeter=0;" edge="1" parent="1" source="HyWu2Pgf14OXVm07-XL6-1" target="HyWu2Pgf14OXVm07-XL6-2">
          <mxGeometry relative="1" as="geometry" />
        </mxCell>
        <mxCell id="HyWu2Pgf14OXVm07-XL6-21" value="&lt;ul style=&quot;margin-top: 4px; margin-bottom: 0px; padding-left: calc(var(--ds-md-zoom)*24px); color: rgb(64, 64, 64); font-family: Inter, system-ui, -apple-system, BlinkMacSystemFont, &amp;quot;Segoe UI&amp;quot;, Roboto, &amp;quot;Noto Sans&amp;quot;, Ubuntu, Cantarell, &amp;quot;Helvetica Neue&amp;quot;, Oxygen, &amp;quot;Open Sans&amp;quot;, sans-serif; font-style: normal; font-variant-ligatures: normal; font-variant-caps: normal; font-weight: 400; letter-spacing: normal; orphans: 2; text-align: left; text-indent: 0px; text-transform: none; widows: 2; word-spacing: 0px; -webkit-text-stroke-width: 0px; white-space: normal; text-decoration-thickness: initial; text-decoration-style: initial; text-decoration-color: initial;&quot;&gt;&lt;li&gt;&lt;p style=&quot;margin-top: 0px; margin-right: 0px; margin-left: 0px; line-height: var(--ds-md-line-height); margin-bottom: 0px !important;&quot;&gt;Reports on system usage, user activity, and content performance.&lt;/p&gt;&lt;/li&gt;&lt;/ul&gt;" style="text;whiteSpace=wrap;html=1;fontSize=10;" vertex="1" parent="1">
          <mxGeometry x="580" y="440" width="150" height="60" as="geometry" />
        </mxCell>
        <mxCell id="HyWu2Pgf14OXVm07-XL6-22" style="edgeStyle=orthogonalEdgeStyle;rounded=0;orthogonalLoop=1;jettySize=auto;html=1;entryX=0;entryY=0.613;entryDx=0;entryDy=0;entryPerimeter=0;" edge="1" parent="1" source="HyWu2Pgf14OXVm07-XL6-3" target="HyWu2Pgf14OXVm07-XL6-1">
          <mxGeometry relative="1" as="geometry" />
        </mxCell>
        <mxCell id="HyWu2Pgf14OXVm07-XL6-23" value="&lt;ul style=&quot;margin-top: 4px; margin-bottom: 0px; padding-left: calc(var(--ds-md-zoom)*24px); color: rgb(64, 64, 64); font-family: Inter, system-ui, -apple-system, BlinkMacSystemFont, &amp;quot;Segoe UI&amp;quot;, Roboto, &amp;quot;Noto Sans&amp;quot;, Ubuntu, Cantarell, &amp;quot;Helvetica Neue&amp;quot;, Oxygen, &amp;quot;Open Sans&amp;quot;, sans-serif; font-style: normal; font-variant-ligatures: normal; font-variant-caps: normal; font-weight: 400; letter-spacing: normal; orphans: 2; text-align: left; text-indent: 0px; text-transform: none; widows: 2; word-spacing: 0px; -webkit-text-stroke-width: 0px; white-space: normal; text-decoration-thickness: initial; text-decoration-style: initial; text-decoration-color: initial;&quot;&gt;&lt;li&gt;&lt;p style=&quot;margin-top: 0px; margin-right: 0px; margin-left: 0px; line-height: var(--ds-md-line-height); margin-bottom: 0px !important;&quot;&gt;Workout plans, diet plans, and health advice created by trainers.&lt;/p&gt;&lt;/li&gt;&lt;li style=&quot;margin-top: 4px;&quot;&gt;&lt;p style=&quot;margin-top: 0px; margin-right: 0px; margin-left: 0px; line-height: var(--ds-md-line-height); margin-bottom: 0px !important;&quot;&gt;Updates to existing plans and advice.&lt;/p&gt;&lt;/li&gt;&lt;/ul&gt;" style="text;whiteSpace=wrap;html=1;fontSize=10;" vertex="1" parent="1">
          <mxGeometry x="146" y="630" width="180" height="70" as="geometry" />
        </mxCell>
        <mxCell id="HyWu2Pgf14OXVm07-XL6-25" value="&lt;ul style=&quot;margin-top: 4px; margin-bottom: 0px; padding-left: calc(var(--ds-md-zoom)*24px); color: rgb(64, 64, 64); font-family: Inter, system-ui, -apple-system, BlinkMacSystemFont, &amp;quot;Segoe UI&amp;quot;, Roboto, &amp;quot;Noto Sans&amp;quot;, Ubuntu, Cantarell, &amp;quot;Helvetica Neue&amp;quot;, Oxygen, &amp;quot;Open Sans&amp;quot;, sans-serif; font-style: normal; font-variant-ligatures: normal; font-variant-caps: normal; font-weight: 400; letter-spacing: normal; orphans: 2; text-align: left; text-indent: 0px; text-transform: none; widows: 2; word-spacing: 0px; -webkit-text-stroke-width: 0px; white-space: normal; text-decoration-thickness: initial; text-decoration-style: initial; text-decoration-color: initial;&quot;&gt;&lt;li&gt;&lt;p style=&quot;margin-top: 0px; margin-right: 0px; margin-left: 0px; line-height: var(--ds-md-line-height); margin-bottom: 0px !important;&quot;&gt;Feedback from users on the provided plans and advice.&lt;/p&gt;&lt;/li&gt;&lt;li style=&quot;margin-top: 4px;&quot;&gt;&lt;p style=&quot;margin-top: 0px; margin-right: 0px; margin-left: 0px; line-height: var(--ds-md-line-height); margin-bottom: 0px !important;&quot;&gt;Analytics on the usage of plans and advice.&lt;/p&gt;&lt;/li&gt;&lt;/ul&gt;" style="text;whiteSpace=wrap;html=1;fontSize=10;" vertex="1" parent="1">
          <mxGeometry x="380" y="665" width="80" height="100" as="geometry" />
        </mxCell>
        <mxCell id="HyWu2Pgf14OXVm07-XL6-29" value="" style="endArrow=none;html=1;rounded=0;entryX=0;entryY=1;entryDx=0;entryDy=0;" edge="1" parent="1" target="HyWu2Pgf14OXVm07-XL6-1">
          <mxGeometry width="50" height="50" relative="1" as="geometry">
            <mxPoint x="370" y="780" as="sourcePoint" />
            <mxPoint x="370" y="440" as="targetPoint" />
          </mxGeometry>
        </mxCell>
        <mxCell id="HyWu2Pgf14OXVm07-XL6-30" value="" style="endArrow=classic;html=1;rounded=0;entryX=1;entryY=0.75;entryDx=0;entryDy=0;" edge="1" parent="1" target="HyWu2Pgf14OXVm07-XL6-3">
          <mxGeometry width="50" height="50" relative="1" as="geometry">
            <mxPoint x="370" y="780" as="sourcePoint" />
            <mxPoint x="420" y="730" as="targetPoint" />
          </mxGeometry>
        </mxCell>
        <mxCell id="HyWu2Pgf14OXVm07-XL6-31" value="" style="endArrow=classic;html=1;rounded=0;entryX=0;entryY=0.125;entryDx=0;entryDy=0;entryPerimeter=0;" edge="1" parent="1" target="HyWu2Pgf14OXVm07-XL6-4">
          <mxGeometry width="50" height="50" relative="1" as="geometry">
            <mxPoint x="430" y="450" as="sourcePoint" />
            <mxPoint x="480" y="400" as="targetPoint" />
          </mxGeometry>
        </mxCell>
        <mxCell id="HyWu2Pgf14OXVm07-XL6-32" value="&lt;ul style=&quot;margin-top: 4px; margin-bottom: 0px; padding-left: calc(var(--ds-md-zoom)*24px); color: rgb(64, 64, 64); font-family: Inter, system-ui, -apple-system, BlinkMacSystemFont, &amp;quot;Segoe UI&amp;quot;, Roboto, &amp;quot;Noto Sans&amp;quot;, Ubuntu, Cantarell, &amp;quot;Helvetica Neue&amp;quot;, Oxygen, &amp;quot;Open Sans&amp;quot;, sans-serif; font-style: normal; font-variant-ligatures: normal; font-variant-caps: normal; font-weight: 400; letter-spacing: normal; orphans: 2; text-align: left; text-indent: 0px; text-transform: none; widows: 2; word-spacing: 0px; -webkit-text-stroke-width: 0px; white-space: normal; text-decoration-thickness: initial; text-decoration-style: initial; text-decoration-color: initial;&quot;&gt;&lt;li&gt;&lt;p style=&quot;margin-top: 0px; margin-right: 0px; margin-left: 0px; line-height: var(--ds-md-line-height); margin-bottom: 0px !important;&quot;&gt;Payment confirmation and receipts.&lt;/p&gt;&lt;/li&gt;&lt;/ul&gt;" style="text;whiteSpace=wrap;html=1;fontSize=10;" vertex="1" parent="1">
          <mxGeometry x="530" y="540" width="75" height="50" as="geometry" />
        </mxCell>
        <mxCell id="HyWu2Pgf14OXVm07-XL6-33" value="&lt;ul style=&quot;margin-top: 4px; margin-bottom: 0px; padding-left: calc(var(--ds-md-zoom)*24px); color: rgb(64, 64, 64); font-family: Inter, system-ui, -apple-system, BlinkMacSystemFont, &amp;quot;Segoe UI&amp;quot;, Roboto, &amp;quot;Noto Sans&amp;quot;, Ubuntu, Cantarell, &amp;quot;Helvetica Neue&amp;quot;, Oxygen, &amp;quot;Open Sans&amp;quot;, sans-serif; font-style: normal; font-variant-ligatures: normal; font-variant-caps: normal; font-weight: 400; letter-spacing: normal; orphans: 2; text-align: left; text-indent: 0px; text-transform: none; widows: 2; word-spacing: 0px; -webkit-text-stroke-width: 0px; white-space: normal; text-decoration-thickness: initial; text-decoration-style: initial; text-decoration-color: initial;&quot;&gt;&lt;li&gt;&lt;p style=&quot;margin-top: 0px; margin-right: 0px; margin-left: 0px; line-height: var(--ds-md-line-height); margin-bottom: 0px !important;&quot;&gt;Payment details (e.g., card information, subscription type).&lt;/p&gt;&lt;/li&gt;&lt;/ul&gt;" style="text;whiteSpace=wrap;html=1;fontSize=10;" vertex="1" parent="1">
          <mxGeometry x="440" y="580" width="100" height="50" as="geometry" />
        </mxCell>
        <mxCell id="HyWu2Pgf14OXVm07-XL6-34" value="Social media platform" style="whiteSpace=wrap;html=1;aspect=fixed;" vertex="1" parent="1">
          <mxGeometry x="374" y="40" width="80" height="80" as="geometry" />
        </mxCell>
        <mxCell id="HyWu2Pgf14OXVm07-XL6-35" value="" style="endArrow=classic;html=1;rounded=0;entryX=0.1;entryY=0.988;entryDx=0;entryDy=0;entryPerimeter=0;" edge="1" parent="1" target="HyWu2Pgf14OXVm07-XL6-34">
          <mxGeometry width="50" height="50" relative="1" as="geometry">
            <mxPoint x="390" y="380" as="sourcePoint" />
            <mxPoint x="440" y="330" as="targetPoint" />
          </mxGeometry>
        </mxCell>
        <mxCell id="HyWu2Pgf14OXVm07-XL6-36" value="&lt;ul style=&quot;margin-top: 4px; margin-bottom: 0px; padding-left: calc(var(--ds-md-zoom)*24px); color: rgb(64, 64, 64); font-family: Inter, system-ui, -apple-system, BlinkMacSystemFont, &amp;quot;Segoe UI&amp;quot;, Roboto, &amp;quot;Noto Sans&amp;quot;, Ubuntu, Cantarell, &amp;quot;Helvetica Neue&amp;quot;, Oxygen, &amp;quot;Open Sans&amp;quot;, sans-serif; font-style: normal; font-variant-ligatures: normal; font-variant-caps: normal; font-weight: 400; letter-spacing: normal; orphans: 2; text-align: left; text-indent: 0px; text-transform: none; widows: 2; word-spacing: 0px; -webkit-text-stroke-width: 0px; white-space: normal; text-decoration-thickness: initial; text-decoration-style: initial; text-decoration-color: initial;&quot;&gt;&lt;li&gt;&lt;p style=&quot;margin-top: 0px; margin-right: 0px; margin-left: 0px; line-height: var(--ds-md-line-height); margin-bottom: 0px !important;&quot;&gt;Social media posts and interactions.&lt;/p&gt;&lt;/li&gt;&lt;/ul&gt;" style="text;whiteSpace=wrap;html=1;fontSize=10;" vertex="1" parent="1">
          <mxGeometry x="284" y="150" width="90" height="50" as="geometry" />
        </mxCell>
        <mxCell id="HyWu2Pgf14OXVm07-XL6-37" value="&lt;ul style=&quot;margin-top: 4px; margin-bottom: 0px; padding-left: calc(var(--ds-md-zoom)*24px); color: rgb(64, 64, 64); font-family: Inter, system-ui, -apple-system, BlinkMacSystemFont, &amp;quot;Segoe UI&amp;quot;, Roboto, &amp;quot;Noto Sans&amp;quot;, Ubuntu, Cantarell, &amp;quot;Helvetica Neue&amp;quot;, Oxygen, &amp;quot;Open Sans&amp;quot;, sans-serif; font-style: normal; font-variant-ligatures: normal; font-variant-caps: normal; font-weight: 400; letter-spacing: normal; orphans: 2; text-align: left; text-indent: 0px; text-transform: none; widows: 2; word-spacing: 0px; -webkit-text-stroke-width: 0px; white-space: normal; text-decoration-thickness: initial; text-decoration-style: initial; text-decoration-color: initial;&quot;&gt;&lt;li&gt;&lt;p style=&quot;margin-top: 0px; margin-right: 0px; margin-left: 0px; line-height: var(--ds-md-line-height); margin-bottom: 0px !important;&quot;&gt;User progress data to be shared on social media.&lt;/p&gt;&lt;/li&gt;&lt;/ul&gt;" style="text;whiteSpace=wrap;html=1;fontSize=10;" vertex="1" parent="1">
          <mxGeometry x="420" y="180" width="120" height="50" as="geometry" />
        </mxCell>
        <mxCell id="HyWu2Pgf14OXVm07-XL6-38" value="" style="endArrow=classic;html=1;rounded=0;entryX=0.65;entryY=0.013;entryDx=0;entryDy=0;entryPerimeter=0;" edge="1" parent="1" target="HyWu2Pgf14OXVm07-XL6-1">
          <mxGeometry width="50" height="50" relative="1" as="geometry">
            <mxPoint x="410" y="120" as="sourcePoint" />
            <mxPoint x="460" y="70" as="targetPoint" />
          </mxGeometry>
        </mxCell>
      </root>
    </mxGraphModel>
  </diagram>
</mxfile>
